<mxfile host="app.diagrams.net" modified="2022-10-23T12:57:40.095Z" agent="5.0 (Windows NT 10.0; Win64; x64) AppleWebKit/537.36 (KHTML, like Gecko) Chrome/104.0.0.0 Safari/537.36" etag="Is1PtfkHETDlJZBdbZtB" version="20.4.0" type="github">
  <diagram id="wENbt7fuNAPI7s-r718T" name="第 1 页">
    <mxGraphModel dx="1718" dy="928" grid="1" gridSize="10" guides="1" tooltips="1" connect="1" arrows="1" fold="1" page="1" pageScale="1" pageWidth="827" pageHeight="1169" math="0" shadow="0">
      <root>
        <mxCell id="0" />
        <mxCell id="1" parent="0" />
        <mxCell id="c10-ZULsXqmEMeiF0qhY-36" value="" style="rounded=1;whiteSpace=wrap;html=1;dashed=1;fillColor=#dae8fc;strokeColor=#6c8ebf;" parent="1" vertex="1">
          <mxGeometry x="130" y="435" width="380" height="120" as="geometry" />
        </mxCell>
        <mxCell id="c10-ZULsXqmEMeiF0qhY-35" value="" style="rounded=1;whiteSpace=wrap;html=1;dashed=1;fillColor=#dae8fc;strokeColor=#6c8ebf;" parent="1" vertex="1">
          <mxGeometry x="130" y="130" width="380" height="120" as="geometry" />
        </mxCell>
        <mxCell id="c10-ZULsXqmEMeiF0qhY-13" style="edgeStyle=orthogonalEdgeStyle;rounded=0;orthogonalLoop=1;jettySize=auto;html=1;exitX=1;exitY=0.5;exitDx=0;exitDy=0;entryX=0;entryY=0.5;entryDx=0;entryDy=0;" parent="1" source="c10-ZULsXqmEMeiF0qhY-1" target="c10-ZULsXqmEMeiF0qhY-2" edge="1">
          <mxGeometry relative="1" as="geometry" />
        </mxCell>
        <mxCell id="c10-ZULsXqmEMeiF0qhY-1" value="Op&lt;br&gt;0" style="rounded=0;whiteSpace=wrap;html=1;" parent="1" vertex="1">
          <mxGeometry x="160" y="150" width="60" height="70" as="geometry" />
        </mxCell>
        <mxCell id="c10-ZULsXqmEMeiF0qhY-17" style="edgeStyle=orthogonalEdgeStyle;rounded=0;orthogonalLoop=1;jettySize=auto;html=1;exitX=1;exitY=0.5;exitDx=0;exitDy=0;entryX=0;entryY=0.5;entryDx=0;entryDy=0;" parent="1" source="c10-ZULsXqmEMeiF0qhY-2" target="c10-ZULsXqmEMeiF0qhY-3" edge="1">
          <mxGeometry relative="1" as="geometry" />
        </mxCell>
        <mxCell id="c10-ZULsXqmEMeiF0qhY-2" value="Op&lt;br&gt;1" style="rounded=0;whiteSpace=wrap;html=1;" parent="1" vertex="1">
          <mxGeometry x="280" y="150" width="60" height="70" as="geometry" />
        </mxCell>
        <mxCell id="c10-ZULsXqmEMeiF0qhY-18" style="edgeStyle=orthogonalEdgeStyle;rounded=0;orthogonalLoop=1;jettySize=auto;html=1;exitX=1;exitY=0.5;exitDx=0;exitDy=0;entryX=0;entryY=0.5;entryDx=0;entryDy=0;" parent="1" source="c10-ZULsXqmEMeiF0qhY-3" target="c10-ZULsXqmEMeiF0qhY-11" edge="1">
          <mxGeometry relative="1" as="geometry" />
        </mxCell>
        <mxCell id="c10-ZULsXqmEMeiF0qhY-3" value="Op&lt;br&gt;n" style="rounded=0;whiteSpace=wrap;html=1;" parent="1" vertex="1">
          <mxGeometry x="430" y="150" width="60" height="70" as="geometry" />
        </mxCell>
        <mxCell id="c10-ZULsXqmEMeiF0qhY-5" value="..." style="text;html=1;strokeColor=none;fillColor=none;align=center;verticalAlign=middle;whiteSpace=wrap;rounded=0;" parent="1" vertex="1">
          <mxGeometry x="350" y="190" width="60" height="30" as="geometry" />
        </mxCell>
        <mxCell id="c10-ZULsXqmEMeiF0qhY-6" value="OpGrad&lt;br&gt;0" style="rounded=0;whiteSpace=wrap;html=1;" parent="1" vertex="1">
          <mxGeometry x="160" y="470" width="60" height="70" as="geometry" />
        </mxCell>
        <mxCell id="c10-ZULsXqmEMeiF0qhY-20" style="edgeStyle=orthogonalEdgeStyle;rounded=0;orthogonalLoop=1;jettySize=auto;html=1;exitX=0;exitY=0.5;exitDx=0;exitDy=0;entryX=1;entryY=0.5;entryDx=0;entryDy=0;" parent="1" source="c10-ZULsXqmEMeiF0qhY-7" target="c10-ZULsXqmEMeiF0qhY-6" edge="1">
          <mxGeometry relative="1" as="geometry" />
        </mxCell>
        <mxCell id="c10-ZULsXqmEMeiF0qhY-7" value="OpGrad&lt;br&gt;1" style="rounded=0;whiteSpace=wrap;html=1;" parent="1" vertex="1">
          <mxGeometry x="280" y="470" width="60" height="70" as="geometry" />
        </mxCell>
        <mxCell id="c10-ZULsXqmEMeiF0qhY-19" style="edgeStyle=orthogonalEdgeStyle;rounded=0;orthogonalLoop=1;jettySize=auto;html=1;exitX=0;exitY=0.5;exitDx=0;exitDy=0;" parent="1" source="c10-ZULsXqmEMeiF0qhY-8" target="c10-ZULsXqmEMeiF0qhY-7" edge="1">
          <mxGeometry relative="1" as="geometry" />
        </mxCell>
        <mxCell id="c10-ZULsXqmEMeiF0qhY-8" value="OpGrad&lt;br&gt;n" style="rounded=0;whiteSpace=wrap;html=1;" parent="1" vertex="1">
          <mxGeometry x="430" y="470" width="60" height="70" as="geometry" />
        </mxCell>
        <mxCell id="c10-ZULsXqmEMeiF0qhY-9" value="..." style="text;html=1;strokeColor=none;fillColor=none;align=center;verticalAlign=middle;whiteSpace=wrap;rounded=0;" parent="1" vertex="1">
          <mxGeometry x="350" y="510" width="60" height="30" as="geometry" />
        </mxCell>
        <mxCell id="c10-ZULsXqmEMeiF0qhY-21" style="edgeStyle=orthogonalEdgeStyle;rounded=0;orthogonalLoop=1;jettySize=auto;html=1;exitX=0;exitY=0.5;exitDx=0;exitDy=0;entryX=1;entryY=0.5;entryDx=0;entryDy=0;" parent="1" source="c10-ZULsXqmEMeiF0qhY-11" target="c10-ZULsXqmEMeiF0qhY-8" edge="1">
          <mxGeometry relative="1" as="geometry" />
        </mxCell>
        <mxCell id="c10-ZULsXqmEMeiF0qhY-11" value="Loss&lt;br&gt;Layer" style="rounded=0;whiteSpace=wrap;html=1;" parent="1" vertex="1">
          <mxGeometry x="580" y="310" width="60" height="70" as="geometry" />
        </mxCell>
        <mxCell id="c10-ZULsXqmEMeiF0qhY-22" value="Weights" style="rounded=0;whiteSpace=wrap;html=1;" parent="1" vertex="1">
          <mxGeometry x="160" y="270" width="330" height="60" as="geometry" />
        </mxCell>
        <mxCell id="c10-ZULsXqmEMeiF0qhY-25" value="grad" style="text;html=1;strokeColor=none;fillColor=none;align=center;verticalAlign=middle;whiteSpace=wrap;rounded=0;" parent="1" vertex="1">
          <mxGeometry x="350" y="480" width="60" height="30" as="geometry" />
        </mxCell>
        <mxCell id="c10-ZULsXqmEMeiF0qhY-26" value="grad" style="text;html=1;strokeColor=none;fillColor=none;align=center;verticalAlign=middle;whiteSpace=wrap;rounded=0;" parent="1" vertex="1">
          <mxGeometry x="230" y="480" width="60" height="30" as="geometry" />
        </mxCell>
        <mxCell id="c10-ZULsXqmEMeiF0qhY-27" value="&lt;b&gt;Optimizer&lt;/b&gt;&lt;br&gt;Layer" style="rounded=0;whiteSpace=wrap;html=1;fillColor=#e1d5e7;strokeColor=#9673a6;" parent="1" vertex="1">
          <mxGeometry x="270" y="390" width="110" height="40" as="geometry" />
        </mxCell>
        <mxCell id="c10-ZULsXqmEMeiF0qhY-28" value="" style="shape=flexArrow;endArrow=classic;html=1;rounded=0;" parent="1" edge="1">
          <mxGeometry width="50" height="50" relative="1" as="geometry">
            <mxPoint x="325" y="380" as="sourcePoint" />
            <mxPoint x="325" y="342" as="targetPoint" />
          </mxGeometry>
        </mxCell>
        <mxCell id="c10-ZULsXqmEMeiF0qhY-29" value="Update" style="text;html=1;strokeColor=none;fillColor=none;align=center;verticalAlign=middle;whiteSpace=wrap;rounded=0;" parent="1" vertex="1">
          <mxGeometry x="340" y="340" width="60" height="30" as="geometry" />
        </mxCell>
        <mxCell id="c10-ZULsXqmEMeiF0qhY-31" value="" style="shape=flexArrow;endArrow=classic;html=1;rounded=0;endWidth=12;endSize=5.444;" parent="1" edge="1">
          <mxGeometry width="50" height="50" relative="1" as="geometry">
            <mxPoint x="325" y="230" as="sourcePoint" />
            <mxPoint x="325" y="260" as="targetPoint" />
          </mxGeometry>
        </mxCell>
        <mxCell id="c10-ZULsXqmEMeiF0qhY-33" value="Read" style="text;html=1;strokeColor=none;fillColor=none;align=center;verticalAlign=middle;whiteSpace=wrap;rounded=0;" parent="1" vertex="1">
          <mxGeometry x="340" y="230" width="60" height="30" as="geometry" />
        </mxCell>
        <mxCell id="_K-2ffVjdaapof2ypOLh-1" value="&lt;b&gt;&lt;font style=&quot;font-size: 14px;&quot;&gt;Forward propagation&lt;/font&gt;&lt;/b&gt;" style="text;html=1;strokeColor=none;fillColor=none;align=center;verticalAlign=middle;whiteSpace=wrap;rounded=0;dashed=1;" parent="1" vertex="1">
          <mxGeometry x="120" y="90" width="140" height="30" as="geometry" />
        </mxCell>
        <mxCell id="_K-2ffVjdaapof2ypOLh-2" value="&lt;b&gt;&lt;font style=&quot;font-size: 14px;&quot;&gt;Backward propagation&lt;/font&gt;&lt;/b&gt;" style="text;html=1;strokeColor=none;fillColor=none;align=center;verticalAlign=middle;whiteSpace=wrap;rounded=0;dashed=1;" parent="1" vertex="1">
          <mxGeometry x="120" y="395" width="140" height="30" as="geometry" />
        </mxCell>
        <mxCell id="_K-2ffVjdaapof2ypOLh-3" value="Output" style="text;html=1;strokeColor=none;fillColor=none;align=center;verticalAlign=middle;whiteSpace=wrap;rounded=0;" parent="1" vertex="1">
          <mxGeometry x="220" y="160" width="60" height="30" as="geometry" />
        </mxCell>
        <mxCell id="_K-2ffVjdaapof2ypOLh-4" value="Output" style="text;html=1;strokeColor=none;fillColor=none;align=center;verticalAlign=middle;whiteSpace=wrap;rounded=0;" parent="1" vertex="1">
          <mxGeometry x="353.5" y="160" width="60" height="30" as="geometry" />
        </mxCell>
      </root>
    </mxGraphModel>
  </diagram>
</mxfile>
